<!-- Generated by IcoMoon.io -->
<svg version="1.1" xmlns="http://www.w3.org/2000/svg" width="60" height="60" viewBox="0 0 60 60">
<title>magnifier</title>
<path d="M54.667 56.177l-1.329 1.329c-1.472 1.47-3.853 1.47-5.321 0l-10.642-10.639c-1.23-1.234-1.367-3.082-0.527-4.523l-5.82-5.816c-3.129 2.321-6.99 3.711-11.184 3.711-10.388 0-18.808-8.421-18.808-18.808 0-10.389 8.421-18.81 18.808-18.81 10.389 0 18.808 8.421 18.808 18.81 0 4.836-1.837 9.231-4.837 12.563l5.691 5.691c1.44-0.838 3.289-0.703 4.519 0.531l10.642 10.639c1.47 1.472 1.47 3.855 0.002 5.323zM33.915 21.354c0-7.791-6.317-14.106-14.107-14.106s-14.108 6.313-14.108 14.106 6.315 14.106 14.106 14.106 14.109-6.315 14.109-14.106z"></path>
</svg>
