<!-- Generated by IcoMoon.io -->
<svg version="1.1" xmlns="http://www.w3.org/2000/svg" width="60" height="60" viewBox="0 0 60 60">
<title>bin</title>
<path d="M7.5 18.75v37.5c0 2.063 1.688 3.75 3.75 3.75h33.75c2.063 0 3.75-1.688 3.75-3.75v-37.5h-41.25zM18.75 52.5h-3.75v-26.25h3.75v26.25zM26.25 52.5h-3.75v-26.25h3.75v26.25zM33.75 52.5h-3.75v-26.25h3.75v26.25zM41.25 52.5h-3.75v-26.25h3.75v26.25z"></path>
<path d="M49.688 7.5h-12.188v-4.688c0-1.547-1.266-2.813-2.813-2.813h-13.125c-1.547 0-2.813 1.266-2.813 2.813v4.688h-12.188c-1.547 0-2.813 1.266-2.813 2.813v4.688h48.75v-4.688c0-1.547-1.266-2.813-2.813-2.813zM33.75 7.5h-11.25v-3.703h11.25v3.703z"></path>
</svg>
