<!-- Generated by IcoMoon.io -->
<svg version="1.1" xmlns="http://www.w3.org/2000/svg" width="60" height="60" viewBox="0 0 60 60">
<title>user-solid-circle</title>
<path d="M30 60c-16.569 0-30-13.431-30-30s13.431-30 30-30v0c16.569 0 30 13.431 30 30s-13.431 30-30 30v0zM21 18v6c0 4.971 4.029 9 9 9s9-4.029 9-9v0-6c0-4.971-4.029-9-9-9s-9 4.029-9 9v0zM10.050 43.32c4.368 6.464 11.669 10.658 19.95 10.658s15.582-4.194 19.896-10.574l0.054-0.085c-5.854-2.753-12.714-4.36-19.95-4.36s-14.096 1.607-20.243 4.484l0.293-0.123z"></path>
</svg>
